<svg id="Layer_1" data-name="Layer 1" xmlns="http://www.w3.org/2000/svg" viewBox="0 0 186 40" fill-rule="evenodd">
    <path style="fill:#ffffff" d="M49.468 18.584h2.503v8.354c0 2.822 1.22 5.44 6.856 5.44 2.045 0 4.37-.25 5.257-.403V25.03l-1.95.042c-1.657 0-1.6-.867-1.6-1.436v-5.05h3.783V11.43h-3.77V4.906H51.97v6.526h-2.503v7.152zm-37.936-8.348C4.916 10.236 0 15.283 0 21.616 0 27.955 4.916 33 11.532 33s11.53-5.046 11.53-11.385c0-6.333-4.9-11.38-11.53-11.38m.006 15.06c-1.976 0-3.58-1.644-3.58-3.676s1.603-3.673 3.58-3.673c1.968 0 3.57 1.646 3.57 3.673s-1.6 3.676-3.57 3.676M38.86 10.792c-2.442 0-4.465.78-5.892 2.466a8.32 8.32 0 0 0 .105-1.386l.007-.36h-8.345v26.75h8.345v-7.15c1.42 1.594 3.402 2.335 5.78 2.335 5.384 0 9.62-4.755 9.62-11.33S44.244 10.79 38.86 10.79m-2.387 15c-1.978 0-3.577-1.632-3.577-3.648s1.6-3.65 3.577-3.65 3.58 1.632 3.58 3.65-1.604 3.648-3.58 3.648"></path>
    <path style="fill:#F66608" d="M181.056 22.566c-2.734 0-4.95 2.196-4.95 4.904s2.215 4.907 4.95 4.907S186 30.18 186 27.47s-2.213-4.904-4.944-4.904"></path>
    <path style="fill:#ffffff" d="M73.77.47c-2.775 0-5.025 2.233-5.025 4.983s2.25 4.98 5.025 4.98 5.02-2.23 5.02-4.98S76.544.47 73.77.47m-6.493 18.464h2.476v13.444h8.407V11.774H67.277zm61.92 4.3c0 1.737-1.168 2.288-2.104 2.288-.916 0-2.012-.544-2.012-2.288v-11.45h-8.336V24.3c0 4.438 3.287 9.05 10.348 9.05 7.103 0 10.362-4.6 10.43-9.05V11.774H129.2v11.45zm37.42-12.432c-2.8 0-5.074 1.192-6.67 3.2-1.18-1.975-3.246-3.2-5.882-3.2a7.21 7.21 0 0 0-5.358 2.487s.17-.703.17-1.753v-.374h-8.4v21.226h8.4V19.394c.24-.374 1.1-1.173 2.16-1.173 1.108 0 2.052.65 2.052 2.18v11.977h8.4V19.394c.242-.376 1.096-1.175 2.16-1.175 1.117 0 2.057.653 2.057 2.182v11.977h8.4V17.85c0-4.597-3.74-7.058-7.5-7.058m-59.352 0c-2.8 0-5.074 1.192-6.67 3.2-1.18-1.975-3.248-3.2-5.884-3.2-1.995 0-4.03.935-5.357 2.487 0 0 .17-.703.17-1.753l.003-.374h-8.4v21.226h8.398V19.394c.24-.374 1.1-1.173 2.157-1.173 1.113 0 2.056.65 2.056 2.18v11.977h8.403V19.394c.236-.376 1.088-1.175 2.158-1.175 1.112 0 2.053.653 2.053 2.182v11.977h8.413V17.85c0-4.597-3.75-7.058-7.5-7.058"></path>
</svg>